# xmcd
#
# Track frame offsets:
#	150
#	16805
#	33097
#	48580
#	67535
#	86162
#	101272
#	114470
#	130420
#	146477
#
# Disc length: 2213 seconds
#
# Revision: 4
# Processed by: cddbd v1.5.2PL0 Copyright (c) Steve Scherf et al.
# Submitted via: EasyCDDAExtractor 12.0.1.1
#
DISCID=7708a30a
DTITLE=Lucero - Solo Pienso En Ti
DYEAR=1991
DGENRE=Latin
TTITLE0=Ya No
TTITLE1=Quien Pudiera Quererte
TTITLE2=Nada Como Ser Miss
TTITLE3=Necesito Tu Amor
TTITLE4=Electricidad
TTITLE5=Tu Desden
TTITLE6=Amor En Primer Grado
TTITLE7=Amor Secreto
TTITLE8=Autocontrol
TTITLE9=Solo Pienso En Ti
EXTD=
EXTT0=
EXTT1=
EXTT2=
EXTT3=
EXTT4=
EXTT5=
EXTT6=
EXTT7=
EXTT8=
EXTT9=
PLAYORDER=
